<?xml version="1.0" encoding="UTF-8" standalone="no"?>
<!-- Created with Inkscape (http://www.inkscape.org/) -->

<svg
   width="100"
   height="100"
   viewBox="0 0 26.458333 26.458333"
   version="1.1"
   id="svg1"
   inkscape:version="1.3.2 (091e20ef0f, 2023-11-25)"
   sodipodi:docname="Avatar.svg"
   inkscape:export-filename="Avatar.png"
   inkscape:export-xdpi="960"
   inkscape:export-ydpi="960"
   xmlns:inkscape="http://www.inkscape.org/namespaces/inkscape"
   xmlns:sodipodi="http://sodipodi.sourceforge.net/DTD/sodipodi-0.dtd"
   xmlns="http://www.w3.org/2000/svg"
   xmlns:svg="http://www.w3.org/2000/svg">
  <sodipodi:namedview
     id="namedview1"
     pagecolor="#ffffff"
     bordercolor="#666666"
     borderopacity="1.0"
     inkscape:showpageshadow="2"
     inkscape:pageopacity="0.0"
     inkscape:pagecheckerboard="0"
     inkscape:deskcolor="#d1d1d1"
     inkscape:document-units="px"
     inkscape:zoom="5.6568543"
     inkscape:cx="9.9878832"
     inkscape:cy="65.318988"
     inkscape:window-width="2560"
     inkscape:window-height="1363"
     inkscape:window-x="0"
     inkscape:window-y="0"
     inkscape:window-maximized="1"
     inkscape:current-layer="layer1" />
  <defs
     id="defs1" />
  <g
     inkscape:label="Ebene 1"
     inkscape:groupmode="layer"
     id="layer1">
    <rect
       style="fill:#ffa348;stroke-width:2.38779;stroke-linecap:round"
       id="rect1"
       width="26.458332"
       height="26.458332"
       x="4.691162e-07"
       y="4.691162e-07" />
    <path
       id="rect14"
       style="fill:#c01c28;stroke-width:0.140694;stroke-linecap:round"
       d="m -18.190434,15.619378 a 1.0583333,1.0583333 0 0 0 -1.445709,0.387381 l -4.23331,7.332362 a 1.0583333,1.0583333 0 0 0 0.387382,1.44571 1.0583333,1.0583333 0 0 0 1.445709,-0.387382 l 4.23331,-7.332362 a 1.0583333,1.0583333 0 0 0 -0.387382,-1.445709 z"
       inkscape:transform-center-x="-2.1164579"
       inkscape:transform-center-y="-3.6653199" />
    <path
       id="path16"
       style="fill:#c01c28;stroke-width:0.140694;stroke-linecap:round"
       d="m -27.714987,15.619378 a 1.0583333,1.0583333 0 0 1 1.445709,0.387381 l 4.23331,7.332362 a 1.0583333,1.0583333 0 0 1 -0.387382,1.44571 1.0583333,1.0583333 0 0 1 -1.445709,-0.387382 l -4.23331,-7.332362 a 1.0583333,1.0583333 0 0 1 0.387382,-1.445709 z"
       inkscape:transform-center-x="2.1164577"
       inkscape:transform-center-y="-3.6653199" />
    <path
       id="path17"
       style="fill:#c01c28;stroke-width:0.140694;stroke-linecap:round"
       d="m -9.723762,15.619378 a 1.0583333,1.0583333 0 0 0 -1.445709,0.387381 l -4.23331,7.332362 a 1.0583333,1.0583333 0 0 0 0.387382,1.44571 1.0583333,1.0583333 0 0 0 1.445709,-0.387382 l 4.23331,-7.332362 a 1.0583333,1.0583333 0 0 0 -0.387382,-1.445709 z"
       inkscape:transform-center-x="-2.1164579"
       inkscape:transform-center-y="-3.6653199" />
    <path
       id="path18"
       style="fill:#c01c28;stroke-width:0.140694;stroke-linecap:round"
       d="m -19.248315,15.619378 a 1.0583333,1.0583333 0 0 1 1.445709,0.387381 l 4.23331,7.332362 a 1.0583333,1.0583333 0 0 1 -0.387382,1.44571 1.0583333,1.0583333 0 0 1 -1.445709,-0.387382 l -4.23331,-7.332362 a 1.0583333,1.0583333 0 0 1 0.387382,-1.445709 z"
       inkscape:transform-center-x="2.1164577"
       inkscape:transform-center-y="-3.6653199" />
    <path
       id="path19"
       style="fill:#c01c28;stroke-width:0.140694;stroke-linecap:round"
       d="m -18.190434,17.2988 a 1.0583333,1.0583333 0 0 1 -1.445709,-0.38738 l -4.23331,-7.3323599 a 1.0583333,1.0583333 0 0 1 0.387382,-1.4457095 1.0583333,1.0583333 0 0 1 1.445709,0.387382 l 4.23331,7.3323604 a 1.0583333,1.0583333 0 0 1 -0.387382,1.445707 z"
       inkscape:transform-center-x="-2.1164578"
       inkscape:transform-center-y="3.6653197" />
    <path
       id="path20"
       style="fill:#c01c28;stroke-width:0.140694;stroke-linecap:round"
       d="m -27.714987,17.2988 a 1.0583333,1.0583333 0 0 0 1.445709,-0.38738 l 4.23331,-7.3323599 a 1.0583333,1.0583333 0 0 0 -0.387382,-1.4457095 1.0583333,1.0583333 0 0 0 -1.445709,0.387382 l -4.23331,7.3323604 a 1.0583333,1.0583333 0 0 0 0.387382,1.445707 z"
       inkscape:transform-center-x="2.1164576"
       inkscape:transform-center-y="3.6653197" />
    <path
       id="path21"
       style="fill:#c01c28;stroke-width:0.140694;stroke-linecap:round"
       d="m -9.723762,17.2988 a 1.0583333,1.0583333 0 0 1 -1.445709,-0.38738 l -4.23331,-7.3323599 a 1.0583333,1.0583333 0 0 1 0.387382,-1.4457095 1.0583333,1.0583333 0 0 1 1.445709,0.387382 l 4.23331,7.3323604 A 1.0583333,1.0583333 0 0 1 -9.723762,17.2988 Z"
       inkscape:transform-center-x="-2.1164578"
       inkscape:transform-center-y="3.6653197" />
    <path
       id="path22"
       style="fill:#c01c28;stroke-width:0.140694;stroke-linecap:round"
       d="m -19.248315,17.2988 a 1.0583333,1.0583333 0 0 0 1.445709,-0.38738 l 4.23331,-7.3323599 a 1.0583333,1.0583333 0 0 0 -0.387382,-1.4457095 1.0583333,1.0583333 0 0 0 -1.445709,0.387382 l -4.23331,7.3323604 a 1.0583333,1.0583333 0 0 0 0.387382,1.445707 z"
       inkscape:transform-center-x="2.1164576"
       inkscape:transform-center-y="3.6653197" />
    <path
       id="path23"
       style="fill:#c64600;stroke-width:0.140694;stroke-linecap:round"
       inkscape:transform-center-x="-2.1164579"
       inkscape:transform-center-y="-3.6653199"
       d="m 8.9926036,4.7617732 a 1.0583333,1.0583333 0 0 0 -0.273885,0.036174 1.0583333,1.0583333 0 0 0 -0.255282,0.10542 1.0583333,1.0583333 0 0 0 -0.219108,0.168465 1.0583333,1.0583333 0 0 0 -0.167948,0.219108 L 3.8430468,12.623309 a 1.0583333,1.0583333 0 0 0 -0.131258,0.605647 1.0583333,1.0583333 0 0 0 0.131258,0.606165 l 4.2333338,7.332369 a 1.0583333,1.0583333 0 0 0 0.168465,0.219108 1.0583333,1.0583333 0 0 0 0.218591,0.168465 1.0583333,1.0583333 0 0 0 5.17e-4,0 1.0583333,1.0583333 0 0 0 0.254765,0.10542 1.0583333,1.0583333 0 0 0 0.274402,0.03617 1.0583333,1.0583333 0 0 0 0.529166,-0.141593 1.0583333,1.0583333 0 0 0 0.217558,-0.167432 1.0583333,1.0583333 0 0 0 0.0015,-0.0016 1.0583333,1.0583333 0 0 0 0.163298,-0.212907 1.0583333,1.0583333 0 0 0 0.0047,-0.0057 l 0.01602,-0.02842 3.3010914,-5.716447 3.316593,5.744869 a 1.0583333,1.0583333 0 0 0 0.168465,0.219108 1.0583333,1.0583333 0 0 0 0.218592,0.168465 1.0583333,1.0583333 0 0 1 5.16e-4,0 1.0583333,1.0583333 0 0 0 0.254765,0.10542 1.0583333,1.0583333 0 0 1 5.17e-4,0 1.0583333,1.0583333 0 0 0 0.273885,0.03617 1.0583333,1.0583333 0 0 0 0.273885,-0.03617 1.0583333,1.0583333 0 0 0 0.255282,-0.10542 1.0583333,1.0583333 0 0 0 0.219108,-0.168982 1.0583333,1.0583333 0 0 0 0.163297,-0.212907 1.0583333,1.0583333 0 0 0 0.0047,-0.0057 l 4.233333,-7.332369 a 1.0583333,1.0583333 0 0 0 0.137977,-0.606165 1.0583333,1.0583333 0 0 0 -0.137977,-0.605647 L 18.376059,5.2908572 a 1.0583333,1.0583333 0 0 0 -0.0047,-0.00569 1.0583333,1.0583333 0 0 0 -0.163814,-0.213423 1.0583333,1.0583333 0 0 0 -0.218591,-0.168465 1.0583333,1.0583333 0 0 0 -5.17e-4,0 1.0583333,1.0583333 0 0 0 -0.254765,-0.10542 1.0583333,1.0583333 0 0 0 -5.17e-4,0 1.0583333,1.0583333 0 0 0 -0.273885,-0.036174 1.0583333,1.0583333 0 0 0 -0.273885,0.036174 1.0583333,1.0583333 0 0 0 -0.255281,0.10542 1.0583333,1.0583333 0 0 0 -0.219108,0.168465 1.0583333,1.0583333 0 0 0 -0.167949,0.219108 L 13.226454,11.035721 9.9093436,5.2908522 a 1.0583333,1.0583333 0 0 0 -0.0047,-0.00569 1.0583333,1.0583333 0 0 0 -0.163814,-0.213423 1.0583333,1.0583333 0 0 0 -0.218592,-0.168465 1.0583333,1.0583333 0 0 0 -5.17e-4,0 1.0583333,1.0583333 0 0 0 -0.254764,-0.10542 1.0583333,1.0583333 0 0 0 -5.17e-4,0 1.0583333,1.0583333 0 0 0 -0.273885,-0.036174 z m 5.17e-4,3.1755165 3.0551104,5.2921833 -3.0551104,5.291667 -3.0556278,-5.291667 z m 8.4666664,0 3.055627,5.2921833 -3.055627,5.291667 -3.055627,-5.291667 z" />
  </g>
</svg>
